{
  "title": "GodZilla (2014) 720p Blu-Ray x264 [Dual-Audio][English DD 5.1 +",
  "uid": 11035825,
  "size": 1226775607,
  "categoryP": "video",
  "categoryS": "hd___movies",
  "magnet": "?xt=urn:btih:3d23a7fb75ed064e6b45499aa5118e40cc0671ff&amp;dn=GodZilla+%282014%29+720p+Blu-Ray+x264+%5BDual-Audio%5D%5BEnglish+DD+5.1+%2B+&amp;tr=udp%3A%2F%2Ftracker.openbittorrent.com%3A80&amp;tr=udp%3A%2F%2Fopen.demonii.com%3A1337&amp;tr=udp%3A%2F%2Ftracker.coppersurfer.tk%3A6969&amp;tr=udp%3A%2F%2Fexodus.desync.com%3A6969",
  "seeders": 52,
  "leechers": 39,
  "uploader": "inovai",
  "files": 3,
  "time": 1410797091,
  "description": "GodZilla (2014) 720p Blu-Ray x264 [Dual-Audio][English DD 5.1 + Hindi DD 5.1] - Mafiaking - TeamTNT\n\nCover:\n &lt;a href=&quot;\nhttp://forum.primetimeshow.in/viewtopic.php?f=7&amp;t=562&quot; rel=&quot;nofollow&quot; target=&quot;_NEW&quot;&gt;\nhttp://forum.primetimeshow.in/viewtopic.php?f=7&amp;t=562&lt;/a&gt;\n\nGENRE: Action | Sci-Fi | Thriller\n\nScreenshots:\n &lt;a href=&quot;\nhttp://m.primetimeshow.in/share-0C46_5416F177.html&quot; rel=&quot;nofollow&quot; target=&quot;_NEW&quot;&gt;\nhttp://m.primetimeshow.in/share-0C46_5416F177.html&lt;/a&gt;\n &lt;a href=&quot;\nhttp://m.primetimeshow.in/share-CCE0_5416F177.html&quot; rel=&quot;nofollow&quot; target=&quot;_NEW&quot;&gt;\nhttp://m.primetimeshow.in/share-CCE0_5416F177.html&lt;/a&gt;\n &lt;a href=&quot;\nhttp://m.primetimeshow.in/share-A67C_5416F177.html&quot; rel=&quot;nofollow&quot; target=&quot;_NEW&quot;&gt;\nhttp://m.primetimeshow.in/share-A67C_5416F177.html&lt;/a&gt;\n &lt;a href=&quot;\nhttp://m.primetimeshow.in/share-00C1_5416F177.html&quot; rel=&quot;nofollow&quot; target=&quot;_NEW&quot;&gt;\nhttp://m.primetimeshow.in/share-00C1_5416F177.html&lt;/a&gt;\n &lt;a href=&quot;\nhttp://m.primetimeshow.in/share-2889_5416F177.html&quot; rel=&quot;nofollow&quot; target=&quot;_NEW&quot;&gt;\nhttp://m.primetimeshow.in/share-2889_5416F177.html&lt;/a&gt;\n\nGeneral\nUnique ID : 188482314137532320221915403707766089368 (0x8DCC5F8F2DD02C398723A39180CD2698)\nComplete name : GodZilla (2014) 720p Blu-Ray x264 [Dual-Audio][English DD 5.1 + Hindi DD 5.1] - Mafiaking - TeamTNT.mkv\nFormat : Matroska\nFormat version : Version 4 / Version 2\nFile size : 1.13 GiB\nDuration : 2h 3mn\nOverall bit rate : 1 318 Kbps\nMovie name : GodZilla (2014) 720p Blu-Ray x264 [Dual-Audio][English DD 5.1 + Hindi DD 5.1] - Mafiaking - TeamTNT\nEncoded date : UTC 2014-09-14 17:49:25\nWriting application : mkvmerge v7.0.0 ('Where We Going') 32bit built on Jun 9 2014 15:08:34\nWriting library : libebml v1.3.0 + libmatroska v1.4.1\n\n\nVideo\nID : 1\nFormat : AVC\nFormat/Info : Advanced Video Codec\nFormat profile : &lt;a class=&quot;__cf_email__&quot; href=&quot;/cdn-cgi/l/email-protection&quot; data-cfemail=&quot;fcb4959b94bcb0cfd2cd&quot;&gt;[email&amp;#160;protected]&lt;/a&gt;&lt;script cf-hash='f9e31' type=&quot;text/javascript&quot;&gt;\n/* &lt;![CDATA[ */!function(){try{var t=&quot;currentScript&quot;in document?document.currentScript:function(){for(var t=document.getElementsByTagName(&quot;script&quot;),e=t.length;e--;)if(t[e].getAttribute(&quot;cf-hash&quot;))return t[e]}();if(t&amp;&amp;t.previousSibling){var e,r,n,i,c=t.previousSibling,a=c.getAttribute(&quot;data-cfemail&quot;);if(a){for(e=&quot;&quot;,r=parseInt(a.substr(0,2),16),n=2;a.length-n;n+=2)i=parseInt(a.substr(n,2),16)^r,e+=String.fromCharCode(i);e=document.createTextNode(e),c.parentNode.replaceChild(e,c)}}}catch(u){}}();/* ]]&gt; */&lt;/script&gt;\nFormat settings, CABAC : Yes\nFormat settings, ReFrames : 4 frames\nCodec ID : V_MPEG4/ISO/AVC\nDuration : 2h 3mn\nBit rate : 900 Kbps\nWidth : 1 280 pixels\nHeight : 536 pixels\nDisplay aspect ratio : 2.40:1\nFrame rate mode : Constant\nFrame rate : 23.976 fps\nColor space : YUV\nChroma subsampling : 4:2:0\nBit depth : 8 bits\nScan type : Progressive\nBits/(Pixel*Frame) : 0.055\nStream size : 771 MiB (66%)\nTitle : Mafiaking\nLanguage : English\nDefault : Yes\nForced : No\n\n\nAudio #1\nID : 2\nFormat : AC-3\nFormat/Info : Audio Coding 3\nMode extension : CM (complete main)\nFormat settings, Endianness : Big\nCodec ID : A_AC3\nDuration : 2h 3mn\nBit rate mode : Constant\nBit rate : 224 Kbps\nChannel(s) : 6 channels\nChannel positions : Front: L C R, Side: L R, LFE\nSampling rate : 48.0 KHz\nBit depth : 16 bits\nCompression mode : Lossy\nStream size : 197 MiB (17%)\nTitle : Mafiaking\nLanguage : Hindi\nDefault : Yes\nForced : No\n\n\nAudio #2\nID : 3\nFormat : AC-3\nFormat/Info : Audio Coding 3\nMode extension : CM (complete main)\nFormat settings, Endianness : Big\nCodec ID : A_AC3\nDuration : 2h 3mn\nBit rate mode : Constant\nBit rate : 192 Kbps\nChannel(s) : 6 channels\nChannel positions : Front: L C R, Side: L R, LFE\nSampling rate : 48.0 KHz\nBit depth : 16 bits\nCompression mode : Lossy\nStream size : 169 MiB (15%)\nTitle : Mafiaking\nLanguage : English\nDefault : No\nForced : No\n\nThanks to Mafiaking - TeamTNT!!\n\nSeed n Enjoy!!",
  "parsed": {
    "xt": "urn:btih:3d23a7fb75ed064e6b45499aa5118e40cc0671ff",
    "dn": "GodZilla (2014) 720p Blu-Ray x264 [Dual-Audio][English DD 5.1   ",
    "tr": [
      "udp://exodus.desync.com:6969",
      "udp://open.demonii.com:1337",
      "udp://tracker.coppersurfer.tk:6969",
      "udp://tracker.openbittorrent.com:80"
    ],
    "infoHash": "3d23a7fb75ed064e6b45499aa5118e40cc0671ff",
    "infoHashBuffer": {
      "type": "Buffer",
      "data": [
        61,
        35,
        167,
        251,
        117,
        237,
        6,
        78,
        107,
        69,
        73,
        154,
        165,
        17,
        142,
        64,
        204,
        6,
        113,
        255
      ]
    },
    "name": "GodZilla (2014) 720p Blu-Ray x264 [Dual-Audio][English DD 5.1   ",
    "announce": [
      "udp://exodus.desync.com:6969",
      "udp://open.demonii.com:1337",
      "udp://tracker.coppersurfer.tk:6969",
      "udp://tracker.openbittorrent.com:80"
    ],
    "urlList": []
  },
  "previous": 91,
  "peers": 11,
  "last_updated": "2016-12-24T22:48:30.991Z"
}